<svg xmlns="http://www.w3.org/2000/svg" xmlns:xlink="http://www.w3.org/1999/xlink" width="500" zoomAndPan="magnify" viewBox="0 0 375 374.999991" height="500" preserveAspectRatio="xMidYMid meet" version="1.0"><defs><clipPath id="a9cdcafecc"><path d="M 31.644531 31.644531 L 343.644531 31.644531 L 343.644531 343.644531 L 31.644531 343.644531 Z M 31.644531 31.644531 " clip-rule="nonzero"/></clipPath></defs><g clip-path="url(#a9cdcafecc)"><path fill="#ffffff" d="M 343.644531 187.644531 C 343.644531 190.195312 343.578125 192.746094 343.453125 195.296875 C 343.328125 197.847656 343.140625 200.394531 342.890625 202.933594 C 342.640625 205.472656 342.328125 208.007812 341.953125 210.53125 C 341.578125 213.058594 341.144531 215.574219 340.644531 218.078125 C 340.148438 220.582031 339.585938 223.070312 338.96875 225.546875 C 338.347656 228.023438 337.667969 230.484375 336.925781 232.925781 C 336.183594 235.371094 335.382812 237.792969 334.523438 240.199219 C 333.664062 242.601562 332.746094 244.984375 331.769531 247.339844 C 330.789062 249.699219 329.757812 252.035156 328.664062 254.339844 C 327.574219 256.648438 326.425781 258.929688 325.222656 261.179688 C 324.019531 263.433594 322.761719 265.652344 321.449219 267.84375 C 320.136719 270.03125 318.769531 272.1875 317.351562 274.3125 C 315.933594 276.433594 314.464844 278.519531 312.941406 280.570312 C 311.421875 282.621094 309.851562 284.632812 308.230469 286.609375 C 306.613281 288.582031 304.945312 290.515625 303.230469 292.40625 C 301.515625 294.296875 299.757812 296.144531 297.953125 297.953125 C 296.144531 299.757812 294.296875 301.515625 292.40625 303.230469 C 290.515625 304.945312 288.582031 306.613281 286.609375 308.230469 C 284.632812 309.851562 282.621094 311.421875 280.570312 312.941406 C 278.519531 314.464844 276.433594 315.933594 274.3125 317.351562 C 272.1875 318.769531 270.03125 320.136719 267.84375 321.449219 C 265.652344 322.761719 263.433594 324.019531 261.179688 325.222656 C 258.929688 326.425781 256.648438 327.574219 254.339844 328.664062 C 252.035156 329.757812 249.699219 330.789062 247.339844 331.769531 C 244.984375 332.746094 242.601562 333.664062 240.199219 334.523438 C 237.792969 335.382812 235.371094 336.183594 232.925781 336.925781 C 230.484375 337.667969 228.023438 338.347656 225.546875 338.96875 C 223.070312 339.585938 220.582031 340.148438 218.078125 340.644531 C 215.574219 341.144531 213.058594 341.578125 210.53125 341.953125 C 208.007812 342.328125 205.472656 342.640625 202.933594 342.890625 C 200.394531 343.140625 197.847656 343.328125 195.296875 343.453125 C 192.746094 343.578125 190.195312 343.644531 187.644531 343.644531 C 185.089844 343.644531 182.539062 343.578125 179.988281 343.453125 C 177.4375 343.328125 174.894531 343.140625 172.351562 342.890625 C 169.8125 342.640625 167.277344 342.328125 164.753906 341.953125 C 162.226562 341.578125 159.710938 341.144531 157.207031 340.644531 C 154.703125 340.148438 152.214844 339.585938 149.738281 338.96875 C 147.261719 338.347656 144.800781 337.667969 142.359375 336.925781 C 139.914062 336.183594 137.492188 335.382812 135.085938 334.523438 C 132.683594 333.664062 130.304688 332.746094 127.945312 331.769531 C 125.585938 330.789062 123.253906 329.757812 120.945312 328.664062 C 118.636719 327.574219 116.355469 326.425781 114.105469 325.222656 C 111.851562 324.019531 109.632812 322.761719 107.441406 321.449219 C 105.253906 320.136719 103.097656 318.769531 100.972656 317.351562 C 98.851562 315.933594 96.765625 314.464844 94.714844 312.941406 C 92.664062 311.421875 90.652344 309.851562 88.675781 308.230469 C 86.703125 306.613281 84.769531 304.945312 82.878906 303.230469 C 80.988281 301.515625 79.140625 299.757812 77.335938 297.953125 C 75.527344 296.144531 73.769531 294.296875 72.054688 292.40625 C 70.339844 290.515625 68.671875 288.582031 67.054688 286.609375 C 65.433594 284.632812 63.863281 282.621094 62.34375 280.570312 C 60.820312 278.519531 59.351562 276.433594 57.933594 274.3125 C 56.515625 272.1875 55.148438 270.03125 53.835938 267.84375 C 52.523438 265.652344 51.265625 263.433594 50.0625 261.179688 C 48.859375 258.929688 47.710938 256.648438 46.621094 254.339844 C 45.527344 252.035156 44.496094 249.699219 43.515625 247.339844 C 42.539062 244.984375 41.621094 242.601562 40.761719 240.199219 C 39.902344 237.792969 39.101562 235.371094 38.359375 232.925781 C 37.617188 230.484375 36.9375 228.023438 36.316406 225.546875 C 35.699219 223.070312 35.136719 220.582031 34.640625 218.078125 C 34.140625 215.574219 33.707031 213.058594 33.332031 210.53125 C 32.957031 208.007812 32.644531 205.472656 32.394531 202.933594 C 32.144531 200.394531 31.957031 197.847656 31.832031 195.296875 C 31.707031 192.746094 31.644531 190.195312 31.644531 187.644531 C 31.644531 185.089844 31.707031 182.539062 31.832031 179.988281 C 31.957031 177.4375 32.144531 174.894531 32.394531 172.351562 C 32.644531 169.8125 32.957031 167.277344 33.332031 164.753906 C 33.707031 162.226562 34.140625 159.710938 34.640625 157.207031 C 35.136719 154.703125 35.699219 152.214844 36.316406 149.738281 C 36.9375 147.261719 37.617188 144.800781 38.359375 142.359375 C 39.101562 139.914062 39.902344 137.492188 40.761719 135.085938 C 41.621094 132.683594 42.539062 130.304688 43.515625 127.945312 C 44.496094 125.585938 45.527344 123.253906 46.621094 120.945312 C 47.710938 118.636719 48.859375 116.355469 50.0625 114.105469 C 51.265625 111.851562 52.523438 109.632812 53.835938 107.441406 C 55.148438 105.253906 56.515625 103.097656 57.933594 100.972656 C 59.351562 98.851562 60.820312 96.765625 62.34375 94.714844 C 63.863281 92.664062 65.433594 90.652344 67.054688 88.675781 C 68.671875 86.703125 70.339844 84.769531 72.054688 82.878906 C 73.769531 80.988281 75.527344 79.140625 77.335938 77.335938 C 79.140625 75.527344 80.988281 73.769531 82.878906 72.054688 C 84.769531 70.339844 86.703125 68.671875 88.675781 67.054688 C 90.652344 65.433594 92.664062 63.863281 94.714844 62.34375 C 96.765625 60.820312 98.851562 59.351562 100.972656 57.933594 C 103.097656 56.515625 105.253906 55.148438 107.441406 53.835938 C 109.632812 52.523438 111.851562 51.265625 114.105469 50.0625 C 116.355469 48.859375 118.636719 47.710938 120.945312 46.621094 C 123.253906 45.527344 125.585938 44.496094 127.945312 43.515625 C 130.304688 42.539062 132.683594 41.621094 135.085938 40.761719 C 137.492188 39.902344 139.914062 39.101562 142.359375 38.359375 C 144.800781 37.617188 147.261719 36.9375 149.738281 36.316406 C 152.214844 35.699219 154.703125 35.136719 157.207031 34.640625 C 159.710938 34.140625 162.226562 33.707031 164.753906 33.332031 C 167.277344 32.957031 169.8125 32.644531 172.351562 32.394531 C 174.894531 32.144531 177.4375 31.957031 179.988281 31.832031 C 182.539062 31.707031 185.089844 31.644531 187.644531 31.644531 C 190.195312 31.644531 192.746094 31.707031 195.296875 31.832031 C 197.847656 31.957031 200.394531 32.144531 202.933594 32.394531 C 205.472656 32.644531 208.007812 32.957031 210.53125 33.332031 C 213.058594 33.707031 215.574219 34.140625 218.078125 34.640625 C 220.582031 35.136719 223.070312 35.699219 225.546875 36.316406 C 228.023438 36.9375 230.484375 37.617188 232.925781 38.359375 C 235.371094 39.101562 237.792969 39.902344 240.199219 40.761719 C 242.601562 41.621094 244.984375 42.539062 247.339844 43.515625 C 249.699219 44.496094 252.035156 45.527344 254.339844 46.621094 C 256.648438 47.710938 258.929688 48.859375 261.179688 50.0625 C 263.433594 51.265625 265.652344 52.523438 267.84375 53.835938 C 270.03125 55.148438 272.1875 56.515625 274.3125 57.933594 C 276.433594 59.351562 278.519531 60.820312 280.570312 62.34375 C 282.621094 63.863281 284.632812 65.433594 286.609375 67.054688 C 288.582031 68.671875 290.515625 70.339844 292.40625 72.054688 C 294.296875 73.769531 296.144531 75.527344 297.953125 77.335938 C 299.757812 79.140625 301.515625 80.988281 303.230469 82.878906 C 304.945312 84.769531 306.613281 86.703125 308.230469 88.675781 C 309.851562 90.652344 311.421875 92.664062 312.941406 94.714844 C 314.464844 96.765625 315.933594 98.851562 317.351562 100.972656 C 318.769531 103.097656 320.136719 105.253906 321.449219 107.441406 C 322.761719 109.632812 324.019531 111.851562 325.222656 114.105469 C 326.425781 116.355469 327.574219 118.636719 328.664062 120.945312 C 329.757812 123.253906 330.789062 125.585938 331.769531 127.945312 C 332.746094 130.304688 333.664062 132.683594 334.523438 135.085938 C 335.382812 137.492188 336.183594 139.914062 336.925781 142.359375 C 337.667969 144.800781 338.347656 147.261719 338.96875 149.738281 C 339.589844 152.214844 340.148438 154.703125 340.644531 157.207031 C 341.144531 159.710938 341.578125 162.226562 341.953125 164.753906 C 342.328125 167.277344 342.640625 169.8125 342.890625 172.351562 C 343.140625 174.894531 343.328125 177.4375 343.453125 179.988281 C 343.578125 182.539062 343.644531 185.089844 343.644531 187.644531 Z M 343.644531 187.644531 " fill-opacity="1" fill-rule="nonzero"/></g></svg>