<svg xmlns="http://www.w3.org/2000/svg" xmlns:xlink="http://www.w3.org/1999/xlink" width="500" zoomAndPan="magnify" viewBox="0 0 375 374.999991" height="500" preserveAspectRatio="xMidYMid meet" version="1.0"><defs><clipPath id="c16df98131"><path d="M 48.207031 49 L 326 49 L 326 326.804688 L 48.207031 326.804688 Z M 48.207031 49 " clip-rule="nonzero"/></clipPath></defs><g clip-path="url(#c16df98131)"><path fill="#811de4" d="M 325.457031 52.3125 C 325.453125 52.242188 325.453125 52.191406 325.449219 52.160156 C 325.449219 52.117188 325.433594 52.074219 325.429688 52.027344 C 325.421875 51.933594 325.40625 51.84375 325.386719 51.753906 C 325.375 51.691406 325.371094 51.625 325.355469 51.566406 C 325.34375 51.519531 325.324219 51.476562 325.308594 51.429688 C 325.285156 51.351562 325.257812 51.273438 325.226562 51.195312 C 325.199219 51.132812 325.179688 51.070312 325.152344 51.011719 C 325.128906 50.964844 325.101562 50.917969 325.074219 50.871094 C 325.039062 50.808594 325.003906 50.746094 324.964844 50.683594 C 324.925781 50.625 324.894531 50.570312 324.851562 50.515625 C 324.816406 50.46875 324.78125 50.425781 324.742188 50.378906 C 324.699219 50.328125 324.660156 50.277344 324.613281 50.230469 C 324.566406 50.179688 324.519531 50.132812 324.472656 50.085938 C 324.425781 50.042969 324.375 50 324.324219 49.960938 C 324.277344 49.921875 324.234375 49.882812 324.183594 49.847656 C 324.132812 49.808594 324.074219 49.773438 324.019531 49.738281 C 323.957031 49.695312 323.894531 49.660156 323.828125 49.625 C 323.78125 49.597656 323.738281 49.570312 323.691406 49.550781 C 323.632812 49.519531 323.570312 49.5 323.511719 49.476562 C 323.433594 49.445312 323.351562 49.414062 323.269531 49.390625 C 323.226562 49.378906 323.183594 49.359375 323.140625 49.347656 C 323.078125 49.332031 323.015625 49.324219 322.953125 49.3125 C 322.863281 49.292969 322.773438 49.28125 322.679688 49.269531 C 322.632812 49.265625 322.589844 49.253906 322.542969 49.25 C 322.527344 49.25 322.40625 49.242188 322.199219 49.230469 C 319.453125 49.105469 301.230469 48.574219 275.984375 54.9375 C 275.644531 55.019531 275.308594 55.105469 274.964844 55.195312 C 274.574219 55.292969 274.183594 55.394531 273.792969 55.5 C 273.246094 55.644531 272.695312 55.792969 272.144531 55.941406 C 271.878906 56.015625 271.613281 56.085938 271.347656 56.160156 C 270.484375 56.398438 269.617188 56.640625 268.738281 56.898438 C 268.738281 56.898438 268.734375 56.898438 268.734375 56.898438 C 239.3125 65.472656 197.179688 85.234375 162.710938 130.710938 C 151.953125 129.246094 132.488281 128.78125 111.503906 138.8125 C 84.183594 151.871094 63.078125 178.230469 48.769531 217.164062 C 48.285156 218.476562 48.738281 219.953125 49.875 220.765625 C 50.417969 221.148438 51.046875 221.339844 51.671875 221.339844 C 52.371094 221.339844 53.066406 221.105469 53.632812 220.640625 C 54.070312 220.285156 96.144531 186.207031 127.15625 195.601562 C 125.785156 199.144531 124.449219 202.769531 123.167969 206.457031 L 121.429688 204.71875 C 120.222656 203.503906 118.261719 203.503906 117.050781 204.71875 L 107.984375 213.8125 C 106.773438 215.023438 106.773438 216.988281 107.984375 218.199219 L 115.359375 225.59375 L 103.492188 237.492188 C 102.285156 238.703125 102.285156 240.667969 103.492188 241.882812 L 133.292969 271.757812 C 133.898438 272.363281 134.691406 272.664062 135.484375 272.664062 C 136.277344 272.664062 137.066406 272.363281 137.671875 271.757812 L 149.539062 259.859375 L 156.914062 267.25 C 157.519531 267.855469 158.308594 268.160156 159.101562 268.160156 C 159.894531 268.160156 160.6875 267.855469 161.292969 267.25 L 170.363281 258.15625 C 171.570312 256.945312 171.570312 254.980469 170.363281 253.769531 L 168.632812 252.03125 C 172.316406 250.746094 175.929688 249.40625 179.457031 248.035156 C 188.832031 279.121094 154.839844 321.300781 154.484375 321.738281 C 153.597656 322.820312 153.546875 324.363281 154.359375 325.503906 C 154.953125 326.339844 155.898438 326.808594 156.878906 326.808594 C 157.238281 326.808594 157.597656 326.746094 157.949219 326.617188 C 196.785156 312.273438 223.082031 291.113281 236.109375 263.722656 C 246.117188 242.6875 245.652344 223.171875 244.191406 212.390625 C 289.554688 177.832031 309.269531 135.589844 317.820312 106.097656 C 326.429688 76.398438 325.570312 54.503906 325.457031 52.3125 Z M 58.515625 209.339844 C 72.035156 177.441406 90.726562 155.621094 114.167969 144.414062 C 131.695312 136.035156 148.066406 135.511719 158.488281 136.472656 C 147.246094 152.300781 137.503906 170.210938 129.457031 189.820312 C 103.992188 181.726562 73.328125 199.214844 58.515625 209.339844 Z M 135.484375 265.171875 L 110.0625 239.6875 L 119.738281 229.984375 L 145.160156 255.46875 Z M 159.101562 260.667969 L 151.730469 253.277344 C 151.730469 253.277344 151.730469 253.277344 151.730469 253.273438 C 151.726562 253.273438 151.726562 253.273438 151.726562 253.273438 L 121.929688 223.402344 C 121.929688 223.402344 121.929688 223.398438 121.925781 223.398438 L 114.550781 216.003906 L 119.242188 211.300781 L 163.792969 255.964844 Z M 230.519531 261.054688 C 219.339844 284.554688 197.574219 303.292969 165.753906 316.84375 C 175.855469 301.996094 193.296875 271.253906 185.222656 245.726562 C 204.789062 237.660156 222.652344 227.890625 238.441406 216.625 C 239.398438 227.070312 238.875 243.484375 230.519531 261.054688 Z M 239.007812 208.535156 C 221.90625 221.34375 202.109375 232.296875 180.164062 241.09375 C 174.902344 243.203125 169.382812 245.226562 163.75 247.140625 L 128.046875 211.351562 C 129.949219 205.714844 131.972656 200.179688 134.078125 194.894531 C 142.851562 172.894531 153.78125 153.046875 166.554688 135.90625 C 198.941406 92.445312 238.535156 72.761719 267.164062 63.855469 C 269.390625 74.648438 274.636719 84.429688 282.496094 92.308594 C 290.355469 100.183594 300.109375 105.445312 310.878906 107.675781 C 301.996094 136.378906 282.359375 176.070312 239.007812 208.535156 Z M 319.328125 55.847656 C 319.324219 56 319.324219 56.15625 319.324219 56.320312 C 319.324219 56.433594 319.324219 56.546875 319.320312 56.667969 C 319.320312 56.941406 319.316406 57.226562 319.308594 57.527344 C 319.308594 57.613281 319.304688 57.707031 319.304688 57.796875 C 319.300781 58.035156 319.292969 58.28125 319.289062 58.535156 C 319.285156 58.660156 319.28125 58.792969 319.277344 58.921875 C 319.269531 59.160156 319.261719 59.40625 319.253906 59.65625 C 319.25 59.785156 319.246094 59.914062 319.242188 60.050781 C 319.226562 60.410156 319.214844 60.785156 319.195312 61.167969 C 319.195312 61.214844 319.191406 61.261719 319.191406 61.308594 C 319.171875 61.691406 319.152344 62.089844 319.128906 62.496094 C 319.121094 62.632812 319.113281 62.769531 319.109375 62.90625 C 319.089844 63.226562 319.070312 63.554688 319.050781 63.886719 C 319.039062 64.035156 319.03125 64.179688 319.019531 64.328125 C 318.996094 64.738281 318.964844 65.15625 318.933594 65.585938 C 318.929688 65.652344 318.925781 65.71875 318.921875 65.789062 C 318.882812 66.28125 318.84375 66.785156 318.800781 67.300781 C 318.789062 67.445312 318.773438 67.597656 318.761719 67.742188 C 318.726562 68.132812 318.691406 68.527344 318.65625 68.929688 C 318.640625 69.101562 318.625 69.273438 318.605469 69.445312 C 318.5625 69.898438 318.519531 70.355469 318.46875 70.824219 C 318.457031 70.929688 318.449219 71.03125 318.4375 71.140625 C 318.375 71.714844 318.308594 72.296875 318.242188 72.894531 C 318.226562 73.039062 318.207031 73.1875 318.1875 73.335938 C 318.132812 73.796875 318.078125 74.261719 318.015625 74.734375 C 317.992188 74.925781 317.96875 75.117188 317.945312 75.3125 C 317.878906 75.800781 317.816406 76.292969 317.746094 76.789062 C 317.726562 76.9375 317.707031 77.085938 317.6875 77.234375 C 317.59375 77.878906 317.5 78.535156 317.398438 79.199219 C 317.378906 79.328125 317.359375 79.457031 317.339844 79.585938 C 317.257812 80.128906 317.171875 80.679688 317.082031 81.234375 C 317.046875 81.441406 317.011719 81.644531 316.980469 81.851562 C 316.890625 82.378906 316.800781 82.914062 316.707031 83.453125 C 316.675781 83.628906 316.648438 83.804688 316.617188 83.980469 C 316.488281 84.695312 316.359375 85.421875 316.21875 86.15625 C 316.207031 86.226562 316.191406 86.296875 316.179688 86.367188 C 316.054688 87.023438 315.921875 87.691406 315.789062 88.363281 C 315.746094 88.566406 315.707031 88.773438 315.664062 88.980469 C 315.546875 89.558594 315.425781 90.140625 315.300781 90.726562 C 315.257812 90.921875 315.214844 91.117188 315.171875 91.3125 C 314.839844 92.851562 314.480469 94.425781 314.089844 96.027344 C 314.039062 96.234375 313.988281 96.4375 313.9375 96.644531 C 313.785156 97.265625 313.628906 97.890625 313.464844 98.523438 C 313.410156 98.734375 313.359375 98.945312 313.304688 99.15625 C 313.09375 99.964844 312.878906 100.777344 312.652344 101.597656 C 312.652344 101.605469 312.648438 101.609375 312.648438 101.617188 C 312.640625 101.648438 312.628906 101.675781 312.621094 101.707031 C 302.84375 99.78125 293.988281 95.046875 286.875 87.917969 C 279.761719 80.785156 275.039062 71.90625 273.121094 62.105469 C 274 61.863281 274.871094 61.628906 275.734375 61.402344 C 275.875 61.367188 276.015625 61.332031 276.15625 61.292969 C 276.914062 61.097656 277.667969 60.910156 278.410156 60.726562 C 278.484375 60.707031 278.554688 60.6875 278.625 60.671875 C 298.109375 55.902344 313.285156 55.371094 319.324219 55.386719 C 319.324219 55.421875 319.324219 55.453125 319.328125 55.488281 C 319.328125 55.605469 319.328125 55.726562 319.328125 55.847656 Z M 319.328125 55.847656 " fill-opacity="1" fill-rule="nonzero"/></g><path fill="#811de4" d="M 233.035156 114.074219 C 217.734375 114.074219 205.289062 126.554688 205.289062 141.890625 C 205.289062 157.230469 217.734375 169.707031 233.035156 169.707031 C 248.335938 169.707031 260.78125 157.230469 260.78125 141.890625 C 260.78125 126.554688 248.335938 114.074219 233.035156 114.074219 Z M 233.035156 163.5 C 221.148438 163.5 211.480469 153.808594 211.480469 141.890625 C 211.480469 129.976562 221.148438 120.285156 233.035156 120.285156 C 244.921875 120.285156 254.589844 129.976562 254.589844 141.890625 C 254.589844 153.808594 244.921875 163.5 233.035156 163.5 Z M 233.035156 163.5 " fill-opacity="1" fill-rule="nonzero"/><path fill="#811de4" d="M 110.96875 264.261719 C 109.757812 263.050781 107.796875 263.050781 106.589844 264.261719 L 67.71875 303.230469 C 66.507812 304.441406 66.507812 306.40625 67.71875 307.617188 C 68.324219 308.226562 69.113281 308.527344 69.90625 308.527344 C 70.699219 308.527344 71.492188 308.226562 72.097656 307.617188 L 110.96875 268.652344 C 112.175781 267.441406 112.175781 265.476562 110.96875 264.261719 Z M 110.96875 264.261719 " fill-opacity="1" fill-rule="nonzero"/><path fill="#811de4" d="M 125.882812 279.214844 C 124.671875 278.003906 122.710938 278.003906 121.503906 279.214844 L 96.121094 304.660156 C 94.910156 305.871094 94.910156 307.835938 96.121094 309.050781 C 96.726562 309.65625 97.519531 309.957031 98.308594 309.957031 C 99.101562 309.957031 99.894531 309.65625 100.5 309.050781 L 125.882812 283.605469 C 127.089844 282.390625 127.089844 280.425781 125.882812 279.214844 Z M 125.882812 279.214844 " fill-opacity="1" fill-rule="nonzero"/><path fill="#811de4" d="M 153.253906 281.679688 C 152.042969 280.46875 150.082031 280.46875 148.875 281.679688 L 122.273438 308.347656 C 121.0625 309.558594 121.0625 311.523438 122.273438 312.734375 C 122.878906 313.34375 123.671875 313.644531 124.464844 313.644531 C 125.253906 313.644531 126.046875 313.34375 126.652344 312.734375 L 153.253906 286.070312 C 154.460938 284.855469 154.460938 282.890625 153.253906 281.679688 Z M 153.253906 281.679688 " fill-opacity="1" fill-rule="nonzero"/><path fill="#811de4" d="M 93.59375 226.261719 C 94.804688 225.050781 94.804688 223.082031 93.59375 221.871094 C 92.382812 220.660156 90.425781 220.660156 89.214844 221.871094 L 62.613281 248.539062 C 61.40625 249.75 61.40625 251.714844 62.613281 252.929688 C 63.21875 253.535156 64.011719 253.839844 64.804688 253.839844 C 65.597656 253.839844 66.386719 253.535156 66.992188 252.929688 Z M 93.59375 226.261719 " fill-opacity="1" fill-rule="nonzero"/><path fill="#811de4" d="M 70.671875 279.144531 L 96.050781 253.699219 C 97.261719 252.488281 97.261719 250.523438 96.050781 249.3125 C 94.839844 248.097656 92.882812 248.097656 91.671875 249.3125 L 66.292969 274.757812 C 65.082031 275.96875 65.082031 277.933594 66.292969 279.144531 C 66.894531 279.753906 67.6875 280.054688 68.480469 280.054688 C 69.273438 280.054688 70.066406 279.753906 70.671875 279.144531 Z M 70.671875 279.144531 " fill-opacity="1" fill-rule="nonzero"/></svg>