<svg xmlns="http://www.w3.org/2000/svg" xmlns:xlink="http://www.w3.org/1999/xlink" width="500" zoomAndPan="magnify" viewBox="0 0 375 374.999991" height="500" preserveAspectRatio="xMidYMid meet" version="1.0"><defs><clipPath id="f2bef84662"><path d="M 56.25 84.648438 L 318.75 84.648438 L 318.75 290.148438 L 56.25 290.148438 Z M 56.25 84.648438 " clip-rule="nonzero"/></clipPath></defs><g clip-path="url(#f2bef84662)"><path fill="#811de4" d="M 314.558594 215.726562 L 285.496094 215.726562 L 285.496094 183.019531 C 285.496094 180.769531 283.660156 178.933594 281.40625 178.933594 L 191.59375 178.933594 L 191.59375 150.316406 L 239.960938 150.316406 C 242.214844 150.316406 244.054688 148.484375 244.054688 146.230469 L 244.054688 88.734375 C 244.054688 86.480469 242.214844 84.648438 239.960938 84.648438 L 134.988281 84.648438 C 132.730469 84.648438 130.894531 86.480469 130.894531 88.734375 L 130.894531 146.175781 C 130.894531 148.429688 132.730469 150.265625 134.988281 150.265625 L 183.355469 150.265625 L 183.355469 178.882812 L 93.648438 178.882812 C 91.390625 178.882812 89.554688 180.714844 89.554688 182.96875 L 89.554688 215.671875 L 60.441406 215.671875 C 58.183594 215.671875 56.347656 217.507812 56.347656 219.761719 L 56.347656 286.007812 C 56.347656 288.261719 58.183594 290.09375 60.441406 290.09375 L 126.75 290.09375 C 129.007812 290.09375 130.84375 288.261719 130.84375 286.007812 L 130.84375 219.8125 C 130.84375 217.558594 129.007812 215.726562 126.75 215.726562 L 97.738281 215.726562 L 97.738281 187.109375 L 183.40625 187.109375 L 183.40625 215.726562 L 154.34375 215.726562 C 152.089844 215.726562 150.253906 217.558594 150.253906 219.8125 L 150.253906 286.058594 C 150.253906 288.3125 152.089844 290.148438 154.34375 290.148438 L 220.65625 290.148438 C 222.910156 290.148438 224.746094 288.3125 224.746094 286.058594 L 224.746094 219.8125 C 224.746094 217.558594 222.910156 215.726562 220.65625 215.726562 L 191.59375 215.726562 L 191.59375 187.109375 L 277.261719 187.109375 L 277.261719 215.726562 L 248.199219 215.726562 C 245.941406 215.726562 244.105469 217.558594 244.105469 219.8125 L 244.105469 286.058594 C 244.105469 288.3125 245.941406 290.148438 248.199219 290.148438 L 314.507812 290.148438 C 316.761719 290.148438 318.601562 288.3125 318.601562 286.058594 L 318.601562 219.8125 C 318.652344 217.558594 316.816406 215.726562 314.558594 215.726562 Z M 139.132812 92.875 L 235.921875 92.875 L 235.921875 142.089844 L 139.132812 142.089844 Z M 122.660156 281.972656 L 64.585938 281.972656 L 64.585938 223.953125 L 122.710938 223.953125 L 122.710938 281.972656 Z M 216.5625 281.972656 L 158.4375 281.972656 L 158.4375 223.953125 L 216.5625 223.953125 Z M 310.414062 281.972656 L 252.339844 281.972656 L 252.339844 223.953125 L 310.46875 223.953125 L 310.46875 281.972656 Z M 310.414062 281.972656 " fill-opacity="1" fill-rule="nonzero"/></g></svg>