<svg xmlns="http://www.w3.org/2000/svg" xmlns:xlink="http://www.w3.org/1999/xlink" width="500" zoomAndPan="magnify" viewBox="0 0 375 374.999991" height="500" preserveAspectRatio="xMidYMid meet" version="1.0"><defs><clipPath id="c86edfe731"><path d="M 136 66.390625 L 241 66.390625 L 241 129 L 136 129 Z M 136 66.390625 " clip-rule="nonzero"/></clipPath><clipPath id="5fb3e670d9"><path d="M 83.242188 189.46875 L 291.351562 189.46875 L 291.351562 308.640625 L 83.242188 308.640625 Z M 83.242188 189.46875 " clip-rule="nonzero"/></clipPath><clipPath id="853fd3e1fe"><path d="M 37.71875 299.210938 L 337.398438 299.210938 L 337.398438 308.640625 L 37.71875 308.640625 Z M 37.71875 299.210938 " clip-rule="nonzero"/></clipPath><clipPath id="0cd76c0a0d"><path d="M 108.445312 282 L 266.964844 282 L 266.964844 308.640625 L 108.445312 308.640625 Z M 108.445312 282 " clip-rule="nonzero"/></clipPath></defs><g clip-path="url(#c86edfe731)"><path fill="#811de4" d="M 227.214844 128.464844 C 225.921875 128.464844 224.660156 127.929688 223.765625 126.984375 C 223.042969 126.226562 222.605469 125.347656 221.875 123.902344 C 220.617188 121.398438 218.28125 116.746094 213.449219 110.628906 C 211.453125 108.097656 210.667969 107.246094 210.109375 106.703125 C 209.734375 106.335938 208.851562 105.503906 207.578125 104.527344 C 206.410156 105.792969 205.097656 106.886719 203.660156 107.785156 C 198.730469 110.863281 193.742188 110.742188 190.109375 110.652344 L 189.847656 110.644531 C 189.734375 110.644531 178.378906 110.386719 166.265625 111.222656 L 165.683594 111.261719 C 161.761719 111.527344 157.707031 111.808594 154.664062 113.429688 C 151.765625 114.972656 150.058594 118.226562 148.964844 124.304688 C 148.640625 126.089844 147.390625 127.570312 145.691406 128.167969 C 143.617188 128.898438 141.402344 128.207031 140.042969 126.402344 C 137.707031 123.300781 137.253906 119.175781 136.925781 116.160156 L 136.910156 116.058594 C 136.445312 111.8125 135.539062 101.496094 137.214844 97.5 C 138.125 95.339844 140.847656 89.71875 146.546875 84.210938 C 157.738281 73.394531 176.160156 69.144531 179.738281 68.398438 C 186.730469 66.949219 193.414062 66.429688 199.605469 66.863281 C 203.964844 67.164062 207.660156 67.710938 210.890625 68.53125 C 215.21875 69.625 218.617188 71.757812 220.71875 74.691406 C 221.804688 76.207031 222.472656 77.761719 223.058594 79.132812 C 223.597656 80.398438 224.0625 81.484375 224.703125 82.164062 C 225.585938 83.113281 226.792969 83.972656 228.070312 84.882812 C 229.492188 85.898438 231.101562 87.042969 232.550781 88.523438 C 236.09375 92.136719 240.101562 98.1875 240.71875 104.34375 C 241.296875 110.097656 238.800781 115.074219 236.566406 118.765625 C 236.308594 119.1875 235.074219 121.105469 233.84375 122.910156 C 231.351562 126.550781 230.148438 128.175781 227.710938 128.4375 C 227.546875 128.453125 227.378906 128.464844 227.214844 128.464844 Z M 206.5625 93.808594 C 208.660156 93.808594 210.390625 95.015625 211.492188 95.789062 L 211.597656 95.863281 C 214.070312 97.582031 215.828125 99.199219 216.660156 100.007812 C 217.558594 100.886719 218.609375 102.046875 220.800781 104.824219 C 224 108.878906 226.226562 112.359375 227.796875 115.097656 C 228.132812 114.585938 228.40625 114.160156 228.558594 113.910156 C 230.757812 110.277344 231.632812 107.613281 231.402344 105.28125 C 231.101562 102.292969 228.824219 98.097656 225.863281 95.078125 C 224.992188 94.191406 223.851562 93.375 222.636719 92.511719 C 221.113281 91.425781 219.390625 90.195312 217.863281 88.566406 C 216.101562 86.683594 215.183594 84.539062 214.449219 82.8125 C 213.992188 81.746094 213.597656 80.828125 213.109375 80.144531 C 212.320312 79.046875 210.71875 78.144531 208.59375 77.609375 C 205.90625 76.925781 202.753906 76.46875 198.953125 76.207031 C 193.617188 75.832031 187.792969 76.289062 181.644531 77.566406 C 172.984375 79.363281 160.296875 83.945312 153.054688 90.945312 C 148.585938 95.265625 146.480469 99.652344 145.890625 101.039062 C 145.695312 101.78125 145.5 104.398438 145.707031 108.710938 C 146.949219 107.34375 148.449219 106.128906 150.257812 105.164062 C 155.070312 102.601562 160.371094 102.238281 165.050781 101.921875 L 165.621094 101.882812 C 178.1875 101.011719 189.589844 101.273438 190.070312 101.285156 L 190.335938 101.292969 C 193.457031 101.367188 196.152344 101.429688 198.699219 99.839844 C 200.027344 99.011719 201.167969 97.824219 202.09375 96.304688 C 202.832031 95.078125 204.011719 94.234375 205.421875 93.929688 C 205.8125 93.84375 206.191406 93.808594 206.5625 93.808594 Z M 210.128906 101.113281 C 210.125 101.125 210.117188 101.140625 210.105469 101.148438 C 210.117188 101.140625 210.125 101.125 210.128906 101.113281 Z M 210.128906 101.113281 " fill-opacity="1" fill-rule="evenodd"/></g><path fill="#811de4" d="M 188.003906 192.484375 C 185.371094 192.484375 182.371094 192.230469 179.144531 191.519531 C 176.269531 190.882812 168.785156 188.757812 161.441406 182.746094 C 157.921875 179.863281 151.464844 173.5 147.796875 163.296875 C 146.863281 160.703125 146.234375 157.933594 145.855469 155.921875 C 143.386719 154.746094 141.121094 153.042969 139.191406 150.882812 C 136.601562 147.988281 134.792969 144.476562 133.964844 140.738281 C 132.277344 133.113281 134.859375 125.640625 141.054688 120.238281 C 143 118.539062 145.957031 118.738281 147.65625 120.6875 C 149.359375 122.632812 149.160156 125.59375 147.210938 127.292969 C 142.617188 131.300781 142.445312 135.714844 143.109375 138.71875 C 144.074219 143.066406 147.457031 146.894531 151.339844 148.023438 C 153.121094 148.539062 154.429688 150.058594 154.675781 151.890625 C 154.964844 154.011719 155.640625 157.4375 156.609375 160.128906 C 159.625 168.511719 165.140625 173.671875 167.375 175.5 C 173.152344 180.234375 178.941406 181.882812 181.164062 182.375 C 187.480469 183.769531 192.6875 182.851562 194.628906 182.390625 C 199.9375 181.136719 203.527344 178.667969 205.0625 177.609375 C 206.167969 176.851562 209.058594 174.703125 212.011719 171.207031 C 216.277344 166.160156 219.433594 159.269531 221.136719 151.28125 C 221.535156 149.40625 223.042969 147.960938 224.9375 147.640625 C 227.964844 147.132812 231.816406 141.898438 232.25 135.914062 C 232.546875 131.785156 231.164062 129.199219 228.132812 128.222656 C 225.671875 127.433594 224.3125 124.792969 225.109375 122.332031 C 225.898438 119.871094 228.535156 118.515625 231 119.308594 C 234.855469 120.546875 237.859375 123.019531 239.679688 126.464844 C 241.203125 129.332031 241.859375 132.832031 241.589844 136.585938 C 241.035156 144.289062 236.535156 152.875 229.667969 155.914062 C 227.523438 164.367188 223.996094 171.535156 219.164062 177.253906 C 215.613281 181.457031 212.128906 184.117188 210.367188 185.328125 C 208.566406 186.566406 203.792969 189.847656 196.78125 191.503906 C 194.894531 191.949219 191.828125 192.484375 188.003906 192.484375 " fill-opacity="1" fill-rule="evenodd"/><path fill="#811de4" d="M 163.375 207.550781 C 162.679688 207.550781 161.96875 207.394531 161.300781 207.058594 C 158.984375 205.910156 158.039062 203.101562 159.1875 200.785156 C 160.402344 198.332031 162.464844 193.410156 162.609375 188.015625 C 162.660156 185.949219 162.390625 184.992188 161.941406 183.410156 C 161.8125 182.960938 161.671875 182.453125 161.527344 181.894531 C 160.882812 179.390625 162.394531 176.839844 164.902344 176.199219 C 167.402344 175.554688 169.957031 177.0625 170.597656 179.566406 C 170.710938 180.011719 170.828125 180.421875 170.949219 180.851562 C 171.496094 182.777344 172.0625 184.769531 171.96875 188.265625 C 171.78125 195.453125 169.136719 201.804688 167.574219 204.949219 C 166.757812 206.597656 165.101562 207.550781 163.375 207.550781 " fill-opacity="1" fill-rule="evenodd"/><path fill="#811de4" d="M 211.640625 209.007812 C 210.003906 209.007812 208.410156 208.144531 207.550781 206.617188 C 205.1875 202.394531 202.328125 195.785156 202.128906 188.265625 C 202.039062 184.765625 202.601562 182.777344 203.144531 180.855469 C 203.195312 180.675781 203.246094 180.492188 203.300781 180.308594 C 203.992188 177.816406 206.574219 176.355469 209.0625 177.046875 C 211.554688 177.742188 213.011719 180.324219 212.320312 182.816406 C 212.265625 183.015625 212.210938 183.210938 212.15625 183.402344 C 211.707031 184.992188 211.433594 185.945312 211.488281 188.019531 C 211.636719 193.628906 213.871094 198.738281 215.722656 202.035156 C 216.984375 204.289062 216.183594 207.144531 213.925781 208.410156 C 213.199219 208.816406 212.414062 209.007812 211.640625 209.007812 " fill-opacity="1" fill-rule="evenodd"/><g clip-path="url(#5fb3e670d9)"><path fill="#811de4" d="M 286.566406 308.710938 L 88.546875 308.710938 C 85.96875 308.710938 83.871094 306.625 83.863281 304.046875 C 83.820312 289.9375 84.476562 254.660156 91.519531 231.957031 C 93.398438 225.898438 95.679688 220.945312 98.703125 216.378906 C 101.230469 212.554688 108.527344 202.929688 121.582031 196.296875 C 133.523438 190.222656 144.949219 189.316406 152.429688 189.625 C 153.554688 189.671875 154.625 190.121094 155.445312 190.890625 L 176.15625 210.335938 C 178.042969 212.109375 178.136719 215.070312 176.367188 216.957031 C 174.597656 218.839844 171.636719 218.9375 169.75 217.164062 L 150.335938 198.941406 C 144.007812 198.875 135.09375 199.929688 125.828125 204.644531 C 114.761719 210.265625 108.636719 218.335938 106.515625 221.542969 C 103.964844 225.40625 102.097656 229.472656 100.464844 234.734375 C 94.40625 254.257812 93.378906 285.101562 93.246094 299.347656 L 281.871094 299.347656 C 281.738281 285.101562 280.707031 254.253906 274.648438 234.734375 C 273.019531 229.472656 271.152344 225.40625 268.601562 221.546875 C 266.480469 218.335938 260.351562 210.265625 249.289062 204.644531 C 239.988281 199.914062 231.042969 198.878906 224.710938 198.941406 L 204.183594 217.246094 C 202.25 218.96875 199.292969 218.796875 197.570312 216.867188 C 195.847656 214.9375 196.019531 211.980469 197.949219 210.257812 L 219.761719 190.808594 C 220.570312 190.085938 221.601562 189.667969 222.683594 189.625 C 230.167969 189.316406 241.59375 190.222656 253.535156 196.296875 C 266.589844 202.929688 273.878906 212.554688 276.410156 216.378906 C 279.429688 220.945312 281.714844 225.898438 283.59375 231.957031 C 290.636719 254.660156 291.296875 289.933594 291.25 304.046875 C 291.242188 306.625 289.148438 308.710938 286.566406 308.710938 " fill-opacity="1" fill-rule="evenodd"/></g><g clip-path="url(#853fd3e1fe)"><path fill="#811de4" d="M 332.714844 308.714844 L 42.402344 308.714844 C 39.816406 308.714844 37.71875 306.621094 37.71875 304.03125 C 37.71875 301.449219 39.816406 299.351562 42.402344 299.351562 L 332.714844 299.351562 C 335.300781 299.351562 337.398438 301.449219 337.398438 304.03125 C 337.398438 306.621094 335.300781 308.714844 332.714844 308.714844 " fill-opacity="1" fill-rule="evenodd"/></g><g clip-path="url(#0cd76c0a0d)"><path fill="#811de4" d="M 246.9375 308.714844 L 128.175781 308.714844 C 117.296875 308.714844 108.445312 299.863281 108.445312 288.980469 L 108.445312 286.777344 C 108.445312 284.191406 110.539062 282.097656 113.128906 282.097656 L 261.988281 282.097656 C 264.578125 282.097656 266.671875 284.191406 266.671875 286.777344 L 266.671875 288.980469 C 266.671875 299.863281 257.820312 308.714844 246.9375 308.714844 Z M 118.105469 291.460938 C 119.222656 295.984375 123.3125 299.351562 128.175781 299.351562 L 246.9375 299.351562 C 251.800781 299.351562 255.894531 295.984375 257.007812 291.460938 L 118.105469 291.460938 " fill-opacity="1" fill-rule="evenodd"/></g><path fill="#811de4" d="M 251.769531 291.460938 L 123.347656 291.460938 C 120.761719 291.460938 118.664062 289.363281 118.664062 286.777344 L 118.664062 221.554688 C 118.664062 214.671875 124.265625 209.070312 131.152344 209.070312 L 243.964844 209.070312 C 250.847656 209.070312 256.449219 214.671875 256.449219 221.554688 L 256.449219 286.777344 C 256.449219 289.363281 254.355469 291.460938 251.769531 291.460938 Z M 128.03125 282.097656 L 247.085938 282.097656 L 247.085938 221.554688 C 247.085938 219.835938 245.6875 218.433594 243.964844 218.433594 L 131.152344 218.433594 C 129.429688 218.433594 128.03125 219.835938 128.03125 221.554688 L 128.03125 282.097656 " fill-opacity="1" fill-rule="evenodd"/><path fill="#811de4" d="M 169.070312 268.136719 C 168.078125 268.136719 167.082031 267.824219 166.234375 267.175781 L 148.964844 253.984375 C 147.804688 253.097656 147.121094 251.722656 147.121094 250.265625 C 147.121094 248.804688 147.804688 247.429688 148.964844 246.542969 L 166.234375 233.351562 C 168.289062 231.785156 171.226562 232.179688 172.796875 234.230469 C 174.367188 236.285156 173.972656 239.226562 171.914062 240.796875 L 159.519531 250.265625 L 171.917969 259.734375 C 173.972656 261.304688 174.367188 264.242188 172.796875 266.296875 C 171.875 267.5 170.480469 268.136719 169.070312 268.136719 " fill-opacity="1" fill-rule="evenodd"/><path fill="#811de4" d="M 206.042969 268.136719 C 204.632812 268.136719 203.242188 267.5 202.316406 266.296875 C 200.75 264.242188 201.144531 261.304688 203.199219 259.734375 L 215.59375 250.265625 L 203.199219 240.796875 C 201.144531 239.226562 200.75 236.285156 202.316406 234.230469 C 203.890625 232.179688 206.828125 231.785156 208.882812 233.351562 L 226.152344 246.542969 C 227.3125 247.429688 227.992188 248.804688 227.992188 250.265625 C 227.992188 251.722656 227.3125 253.097656 226.152344 253.984375 L 208.882812 267.175781 C 208.035156 267.824219 207.035156 268.136719 206.042969 268.136719 " fill-opacity="1" fill-rule="evenodd"/><path fill="#811de4" d="M 181.917969 275.140625 C 181.5 275.140625 181.078125 275.085938 180.65625 274.96875 C 178.164062 274.273438 176.710938 271.6875 177.402344 269.199219 L 188.691406 228.8125 C 189.386719 226.320312 191.96875 224.863281 194.460938 225.558594 C 196.949219 226.257812 198.40625 228.839844 197.710938 231.328125 L 186.425781 271.71875 C 185.847656 273.785156 183.964844 275.140625 181.917969 275.140625 " fill-opacity="1" fill-rule="evenodd"/></svg>